<?xml version="1.0" encoding="UTF-8"?>
<svg version="1.1" xmlns="http://www.w3.org/2000/svg" width="1024" height="1024">
<path d="M0 0 C337.92 0 675.84 0 1024 0 C1024 337.92 1024 675.84 1024 1024 C686.08 1024 348.16 1024 0 1024 C0 686.08 0 348.16 0 0 Z " fill="#FCF9F8" transform="translate(0,0)"/>
<path d="M0 0 C1.21816406 0.94552734 1.21816406 0.94552734 2.4609375 1.91015625 C13.56986738 10.66428061 24.15710561 19.84016089 34 30 C36.57963749 32.5963072 39.1761305 35.17170263 41.796875 37.7265625 C48.35046633 44.13343987 54.40700214 50.72445709 60 58 C60.55059082 58.71188477 61.10118164 59.42376953 61.66845703 60.15722656 C73.65153153 75.70748924 84.51521799 91.65543661 93.86865234 108.92236328 C95.02737268 111.05026791 96.2104963 113.16343842 97.39453125 115.27734375 C120.62443324 157.36630065 135.11392107 208.26844739 135.16796875 256.4921875 C135.17129715 257.55881622 135.17462555 258.62544495 135.17805481 259.72439575 C135.18308652 261.97153294 135.18546431 264.2186775 135.18530273 266.46582031 C135.18747197 269.83151229 135.20562097 273.19686653 135.22460938 276.5625 C135.27094541 294.11852804 134.25392238 311.43148421 131.25 328.75 C131.07863525 329.74201416 130.90727051 330.73402832 130.73071289 331.75610352 C123.88192872 370.10387131 111.11414592 408.00504249 92 442 C91.60345215 442.71172363 91.2069043 443.42344727 90.79833984 444.15673828 C78.49016933 466.11798071 63.56105712 486.09732999 47 505 C46.25105469 505.86238281 45.50210938 506.72476563 44.73046875 507.61328125 C35.85891808 517.66989991 26.35854462 527.46526751 16 536 C15.46745605 536.44633789 14.93491211 536.89267578 14.38623047 537.35253906 C4.30003828 545.79767032 -6.08630999 553.65532245 -17 561 C-17.71430176 561.48291504 -18.42860352 561.96583008 -19.16455078 562.46337891 C-55.30144221 586.67048914 -95.75643109 602.37424174 -138 612 C-139.90845703 612.45632813 -139.90845703 612.45632813 -141.85546875 612.921875 C-148.68755614 614.4917333 -155.56824713 615.60564274 -162.5 616.625 C-163.74559692 616.81002075 -163.74559692 616.81002075 -165.01635742 616.9987793 C-179.04185596 618.96624317 -193.01106991 619.18641992 -207.14794922 619.18530273 C-210.23028451 619.18748603 -213.31225902 619.20569822 -216.39453125 619.22460938 C-228.40559595 619.25973227 -240.10943247 618.71118935 -252 617 C-253.92199219 616.72651733 -253.92199219 616.72651733 -255.8828125 616.44750977 C-279.3060297 612.93004573 -301.58052289 607.57993826 -324 600 C-325.20390381 599.59442871 -325.20390381 599.59442871 -326.43212891 599.18066406 C-364.89619474 586.05129628 -399.91529832 565.5369186 -431.07128906 539.60400391 C-432.30416909 538.5786847 -433.54020391 537.55713947 -434.78027344 536.54052734 C-448.22772099 525.5133135 -460.73478901 513.25081179 -472 500 C-472.76098999 499.10716309 -472.76098999 499.10716309 -473.53735352 498.19628906 C-533.31217583 427.38236753 -562.26697128 334.41141585 -555.05224609 242.23754883 C-548.80565299 172.82367055 -520.6792293 107.91414385 -477 54 C-476.5762207 53.47035645 -476.15244141 52.94071289 -475.71582031 52.39501953 C-468.81721932 43.82346803 -461.18872558 35.98153885 -453.4375 28.1875 C-452.95462524 27.69935822 -452.47175049 27.21121643 -451.97424316 26.70828247 C-445.32986424 20.00792743 -438.3806246 13.8798351 -431 8 C-429.3097315 6.58663766 -427.62189754 5.17035405 -425.9375 3.75 C-410.57968712 -8.73497306 -394.12400277 -19.10977902 -377 -29 C-375.9476416 -29.61633301 -375.9476416 -29.61633301 -374.87402344 -30.24511719 C-340.07279577 -50.51314296 -299.58638677 -62.04810779 -260 -68 C-258.59282715 -68.22647217 -258.59282715 -68.22647217 -257.15722656 -68.45751953 C-167.83222539 -82.55426384 -70.90483866 -55.32250686 0 0 Z " fill="#0091D0" transform="translate(722,238)"/>
<path d="M0 0 C58.65213261 3.66575829 117.02023743 27.69238778 161 67 C161.52464844 67.46825195 162.04929687 67.93650391 162.58984375 68.41894531 C171.57948106 76.47994649 180.09140533 84.65230374 187.65234375 94.09375 C190.02486667 97.03078337 192.47765378 99.8859537 194.9375 102.75 C223.09471718 136.57353024 239.86728794 180.01507907 247 223 C247.19577637 224.16362061 247.39155273 225.32724121 247.59326172 226.52612305 C249.283607 238.01642851 249.30459141 249.46546868 249.26074219 261.06274414 C249.25002998 264.42808085 249.26068915 267.79288262 249.2734375 271.15820312 C249.28549468 287.73903579 247.98053275 303.43015622 244.625 319.6875 C244.4290625 320.68587891 244.233125 321.68425781 244.03125 322.71289062 C235.55592992 364.57989902 216.9622122 401.6985724 190.60009766 434.97363281 C188.99236178 437.00967306 187.4079189 439.06242059 185.82421875 441.1171875 C157.14538459 477.8796349 112.21058424 503.37771185 69 519 C68.21560547 519.28713867 67.43121094 519.57427734 66.62304688 519.87011719 C53.68517765 524.56193415 40.40060764 527.90977367 27 531 C26.2265625 531.19142578 25.453125 531.38285156 24.65625 531.58007812 C16.31268332 533.48979651 8.89785888 533.47659654 0 534 C0 357.78 0 181.56 0 0 Z " fill="#002A4E" transform="translate(528,246)"/>
<path d="M0 0 C1.21816406 0.94552734 1.21816406 0.94552734 2.4609375 1.91015625 C13.56986738 10.66428061 24.15710561 19.84016089 34 30 C36.57963749 32.5963072 39.1761305 35.17170263 41.796875 37.7265625 C48.35046633 44.13343987 54.40700214 50.72445709 60 58 C60.55059082 58.71188477 61.10118164 59.42376953 61.66845703 60.15722656 C73.65153153 75.70748924 84.51521799 91.65543661 93.86865234 108.92236328 C95.02737268 111.05026791 96.2104963 113.16343842 97.39453125 115.27734375 C120.62443324 157.36630065 135.11392107 208.26844739 135.16796875 256.4921875 C135.17129715 257.55881622 135.17462555 258.62544495 135.17805481 259.72439575 C135.18308652 261.97153294 135.18546431 264.2186775 135.18530273 266.46582031 C135.18747197 269.83151229 135.20562097 273.19686653 135.22460938 276.5625 C135.27094541 294.11852804 134.25392238 311.43148421 131.25 328.75 C131.07863525 329.74201416 130.90727051 330.73402832 130.73071289 331.75610352 C123.88192872 370.10387131 111.11414592 408.00504249 92 442 C91.60345215 442.71172363 91.2069043 443.42344727 90.79833984 444.15673828 C78.49016933 466.11798071 63.56105712 486.09732999 47 505 C46.25105469 505.86238281 45.50210938 506.72476563 44.73046875 507.61328125 C35.85891808 517.66989991 26.35854462 527.46526751 16 536 C15.46745605 536.44633789 14.93491211 536.89267578 14.38623047 537.35253906 C4.30003828 545.79767032 -6.08630999 553.65532245 -17 561 C-17.71430176 561.48291504 -18.42860352 561.96583008 -19.16455078 562.46337891 C-55.30144221 586.67048914 -95.75643109 602.37424174 -138 612 C-139.90845703 612.45632813 -139.90845703 612.45632813 -141.85546875 612.921875 C-148.68755614 614.4917333 -155.56824713 615.60564274 -162.5 616.625 C-163.74559692 616.81002075 -163.74559692 616.81002075 -165.01635742 616.9987793 C-179.04185596 618.96624317 -193.01106991 619.18641992 -207.14794922 619.18530273 C-210.23028451 619.18748603 -213.31225902 619.20569822 -216.39453125 619.22460938 C-228.40559595 619.25973227 -240.10943247 618.71118935 -252 617 C-253.92199219 616.72651733 -253.92199219 616.72651733 -255.8828125 616.44750977 C-279.3060297 612.93004573 -301.58052289 607.57993826 -324 600 C-325.20390381 599.59442871 -325.20390381 599.59442871 -326.43212891 599.18066406 C-364.89619474 586.05129628 -399.91529832 565.5369186 -431.07128906 539.60400391 C-432.30416909 538.5786847 -433.54020391 537.55713947 -434.78027344 536.54052734 C-448.22772099 525.5133135 -460.73478901 513.25081179 -472 500 C-472.76098999 499.10716309 -472.76098999 499.10716309 -473.53735352 498.19628906 C-533.31217583 427.38236753 -562.26697128 334.41141585 -555.05224609 242.23754883 C-548.80565299 172.82367055 -520.6792293 107.91414385 -477 54 C-476.5762207 53.47035645 -476.15244141 52.94071289 -475.71582031 52.39501953 C-468.81721932 43.82346803 -461.18872558 35.98153885 -453.4375 28.1875 C-452.95462524 27.69935822 -452.47175049 27.21121643 -451.97424316 26.70828247 C-445.32986424 20.00792743 -438.3806246 13.8798351 -431 8 C-429.3097315 6.58663766 -427.62189754 5.17035405 -425.9375 3.75 C-410.57968712 -8.73497306 -394.12400277 -19.10977902 -377 -29 C-375.9476416 -29.61633301 -375.9476416 -29.61633301 -374.87402344 -30.24511719 C-340.07279577 -50.51314296 -299.58638677 -62.04810779 -260 -68 C-258.59282715 -68.22647217 -258.59282715 -68.22647217 -257.15722656 -68.45751953 C-167.83222539 -82.55426384 -70.90483866 -55.32250686 0 0 Z M-263 -22 C-264.7992153 -21.69505363 -266.59868193 -21.39158517 -268.3984375 -21.08984375 C-328.59965452 -10.50814335 -383.80815555 20.90856819 -426.875 63.625 C-427.74302246 64.48359619 -428.61104492 65.34219238 -429.50537109 66.22680664 C-435.42621757 72.1777053 -440.78060967 78.43055268 -446 85 C-446.68280029 85.83337891 -447.36560059 86.66675781 -448.0690918 87.52539062 C-479.01782569 125.45213499 -499.25777248 172.00874329 -508 220 C-508.21027832 221.13695312 -508.42055664 222.27390625 -508.63720703 223.4453125 C-514.44533476 256.33504293 -514.55212756 292.07612286 -509 325 C-508.86078125 325.84159668 -508.7215625 326.68319336 -508.578125 327.55029297 C-499.44633035 380.49144968 -474.34882055 430.79714109 -439 471 C-438.06607422 472.0828125 -438.06607422 472.0828125 -437.11328125 473.1875 C-435.42476036 475.13972929 -433.71619685 477.07206458 -432 479 C-431.21882813 479.88558594 -430.43765625 480.77117187 -429.6328125 481.68359375 C-425.33332494 486.49928118 -421.0308676 491.07422341 -416.08203125 495.22265625 C-414.60674271 496.4820489 -413.16967604 497.7868515 -411.76171875 499.12109375 C-398.8894758 511.31268933 -384.20281226 521.9080101 -369 531 C-368.24702637 531.45439453 -367.49405273 531.90878906 -366.71826172 532.37695312 C-306.2690864 568.6249674 -230.72570375 584.725047 -160.94580078 571.55566406 C-158.08248906 571.01555985 -155.21471632 570.52888291 -152.33984375 570.0546875 C-140.24357283 567.99428572 -128.65163533 564.81544344 -117 561 C-115.79657959 560.61569824 -115.79657959 560.61569824 -114.56884766 560.22363281 C-63.85059008 543.94067157 -15.36087837 511.97125687 19 471 C19.4429541 470.48147461 19.8859082 469.96294922 20.34228516 469.42871094 C56.60691147 426.85254199 80.48249907 373.39284675 88.125 318 C88.29386719 316.83210938 88.46273437 315.66421875 88.63671875 314.4609375 C95.13218179 268.32780631 90.79093684 221.15736305 76 177 C75.7520166 176.24557617 75.5040332 175.49115234 75.24853516 174.71386719 C62.7649302 137.2069282 41.55389619 101.34907486 14.421875 72.5703125 C12.3419726 70.36293221 10.34521369 68.11710776 8.375 65.8125 C1.27014355 57.66380208 -6.56061736 50.72986667 -15 44 C-16.10050086 43.08779524 -17.19939715 42.17365203 -18.296875 41.2578125 C-59.10608581 7.47821112 -111.59174052 -16.46015918 -164.12744141 -23.59033203 C-166.06761382 -23.86702839 -168.00270927 -24.18156671 -169.93115234 -24.53076172 C-181.88802611 -26.57244572 -193.90290915 -26.39436154 -206 -26.375 C-207.1545166 -26.37512085 -208.3090332 -26.3752417 -209.49853516 -26.37536621 C-227.68342804 -26.34825657 -245.09606148 -25.34772219 -263 -22 Z " fill="#002B4F" transform="translate(722,238)"/>
<path d="M0 0 C7.00597018 5.86986691 12.67854595 12.76612844 18.3125 19.9375 C19.00730469 20.81535156 19.70210937 21.69320313 20.41796875 22.59765625 C35.8822552 42.90761853 39.18454122 65.72439193 40.31539917 90.46099854 C40.39795852 92.26228227 40.48526552 94.06335368 40.57693481 95.86419678 C41.16617673 107.52422473 41.3440998 119.10514329 41.05078125 130.77734375 C41.00417383 133.09545456 40.95778573 135.41356979 40.91162109 137.73168945 C40.81930034 142.22328948 40.65280206 146.70444282 40.44775391 151.19213867 C39.78479322 161.74706551 39.78479322 161.74706551 43.62548828 171.17260742 C46.41195794 173.4201601 49.20648859 175.17115796 52.3125 176.9375 C60.46097049 184.82983226 64.3889827 193.2524665 64.6875 204.375 C64.57684315 210.52260274 63.69049994 215.28975015 61.3125 220.9375 C61.90240723 221.20522217 62.49231445 221.47294434 63.10009766 221.7487793 C65.33853291 222.95148744 66.87919938 224.20721297 68.7109375 225.95703125 C69.34894287 226.56135986 69.98694824 227.16568848 70.64428711 227.78833008 C71.31854736 228.43568115 71.99280762 229.08303223 72.6875 229.75 C74.11285173 231.10461876 75.53864209 232.45877612 76.96484375 233.8125 C77.68526855 234.49828125 78.40569336 235.1840625 79.14794922 235.890625 C81.23100148 237.86043214 83.33099002 239.80957402 85.44140625 241.75 C86.08352051 242.34063232 86.72563477 242.93126465 87.38720703 243.53979492 C88.60912438 244.66162074 89.83270328 245.78164003 91.05810547 246.8996582 C96.21334334 251.64846338 96.21334334 251.64846338 96.5625 256.1875 C96.18466307 261.85505395 94.19486344 265.33972479 90.25 269.3125 C86.59831416 272.19702495 83.53524617 272.95370863 78.91015625 272.6328125 C70.71336248 270.43878349 64.63929748 262.35511504 58.86181641 256.45458984 C50.06852733 247.26455052 50.06852733 247.26455052 39.3125 240.9375 C38.3225 241.2675 37.3325 241.5975 36.3125 241.9375 C23.36182847 243.42589698 13.20625469 242.25464576 2.3125 234.9375 C1.22388672 234.22013672 1.22388672 234.22013672 0.11328125 233.48828125 C-6.79558753 228.25792289 -12.76094151 218.24908617 -14.02099609 209.66577148 C-14.64858826 200.696958 -15.20514333 191.46724322 -9.59375 183.9765625 C-4.23270621 178.24200336 1.23127099 173.40585706 8.3125 169.9375 C8.9725 169.9375 9.6325 169.9375 10.3125 169.9375 C10.29758164 156.99305862 10.25579292 144.0490026 10.18040943 131.10476398 C10.14622864 125.09314878 10.12104328 119.08178531 10.11694336 113.07006836 C10.11264136 107.26022638 10.08402084 101.45095145 10.03906822 95.64128685 C10.02615392 93.43315124 10.02176382 91.22494756 10.02634621 89.01677895 C10.06574408 64.25004156 1.88661034 48.79566347 -15.29296875 31.28125 C-16.78622177 29.81966466 -18.29092157 28.36957381 -19.8125 26.9375 C-24.06268085 22.40397376 -25.41195122 18.63196421 -25.23828125 12.5078125 C-24.02555942 6.84844394 -19.57142463 3.56684022 -15.375 -0.0625 C-10.35547046 -1.93023192 -4.98834988 -1.97213832 0 0 Z " fill="#0090D0" transform="translate(589.6875,417.0625)"/>
<path d="M0 0 C0 30.03 0 60.06 0 91 C-36.63 91 -73.26 91 -111 91 C-109.84803148 65.65669258 -109.84803148 65.65669258 -108.94921875 58.03515625 C-108.85040909 57.15059753 -108.75159943 56.26603882 -108.64979553 55.35467529 C-108.33762481 52.58954755 -108.01366399 49.82600899 -107.6875 47.0625 C-107.57772827 46.11241058 -107.46795654 45.16232117 -107.3548584 44.18344116 C-102.66470739 3.66470739 -102.66470739 3.66470739 -100 1 C-95.51488044 0.59872494 -91.00062433 0.56071912 -86.5 0.4375 C-85.77855804 0.41632111 -85.05711609 0.39514221 -84.31381226 0.37332153 C-56.22770595 -0.42310795 -28.08745519 -0.05791228 0 0 Z " fill="#002A4E" transform="translate(492,408)"/>
<path d="M0 0 C1.21538405 0.00138269 1.21538405 0.00138269 2.45532131 0.00279331 C3.38225292 0.00141865 4.30918453 0.00004398 5.26420498 -0.00137234 C6.80168392 0.00402058 6.80168392 0.00402058 8.37022305 0.00952244 C9.97978123 0.0093034 9.97978123 0.0093034 11.62185574 0.00907993 C15.18765656 0.00977959 18.75340589 0.01757445 22.31919765 0.02539158 C24.78399534 0.02725557 27.24879339 0.02867956 29.71359158 0.0296793 C36.21558045 0.03350596 42.71754716 0.0433375 49.21952724 0.05438328 C57.01299074 0.06701835 64.80646563 0.07099893 72.59993649 0.07683659 C84.4529869 0.08654918 96.30598862 0.10570472 108.1590414 0.12304783 C108.1590414 29.49304783 108.1590414 58.86304783 108.1590414 89.12304783 C82.74342589 89.16315664 82.74342589 89.16315664 71.95005703 89.17187595 C64.57122489 89.177865 57.1924051 89.18496693 49.81358242 89.19848728 C43.86788135 89.20931412 37.92219351 89.21532423 31.97648335 89.21792507 C29.70257197 89.21977969 27.42866136 89.223401 25.15475559 89.22877789 C21.9817702 89.23598561 18.80884024 89.23703888 15.63584805 89.23657322 C14.68566799 89.2401685 13.73548794 89.24376377 12.75651455 89.24746799 C6.27309357 89.23709999 6.27309357 89.23709999 5.1590414 88.12304783 C4.73654305 85.68800767 4.36976305 83.26621798 4.03794765 80.81836033 C3.93366955 80.07176151 3.82939144 79.3251627 3.72195339 78.55593967 C3.38360859 76.12061994 3.052083 73.68443813 2.7215414 71.24804783 C2.60854702 70.42349094 2.49555264 69.59893406 2.37913418 68.7493906 C-0.37684311 48.62574196 -2.87029195 28.52837609 -2.9659586 8.18554783 C-2.97296787 7.14587864 -2.97296787 7.14587864 -2.98011875 6.08520603 C-2.9607256 0.19789193 -2.9607256 0.19789193 0 0 Z " fill="#002B4F" transform="translate(383.8409585952759,529.8769521713257)"/>
<path d="M0 0 C-0.14711426 1.02875244 -0.29422852 2.05750488 -0.44580078 3.11743164 C-2.83903352 19.88376654 -5.0847894 36.63843985 -6.6875 53.5 C-6.80657715 54.72388428 -6.9256543 55.94776855 -7.04833984 57.20874023 C-8.08025659 68.48462709 -8.48408501 79.64987031 -9 91 C-43.32 91 -77.64 91 -113 91 C-111.06361734 60.01787747 -106.31928848 30.08714132 -95 1 C-63.33658676 -0.17387531 -31.68073759 -0.10916113 0 0 Z " fill="#002A4D" transform="translate(358,408)"/>
<path d="M0 0 C0 43.23 0 86.46 0 131 C-31.35 131 -62.7 131 -95 131 C-94.36364988 125.90919906 -93.86867265 121.96686157 -92.43359375 117.234375 C-92.11737061 116.19007324 -91.80114746 115.14577148 -91.4753418 114.06982422 C-91.132854 112.97428223 -90.79036621 111.87874023 -90.4375 110.75 C-90.07889893 109.59902832 -89.72029785 108.44805664 -89.35083008 107.26220703 C-86.07725938 96.94111751 -82.31693799 86.92653945 -78 77 C-77.58347168 76.03819824 -77.16694336 75.07639648 -76.73779297 74.08544922 C-68.70954331 55.7011978 -59.95530244 38.41763881 -47 23 C-46.5551123 22.4647168 -46.11022461 21.92943359 -45.65185547 21.37792969 C-33.47333153 6.88483725 -19.11370527 0 0 0 Z " fill="#00294D" transform="translate(492,245)"/>
<path d="M0 0 C33.99 0 67.98 0 103 0 C103.63544019 4.44808134 104.15008663 8.54175104 104.359375 12.98046875 C105.3253923 31.06787168 107.43182779 48.79944509 110.09185791 66.70838928 C111.18496044 74.12350022 112.10232427 81.55907063 113 89 C94.76325619 90.28830772 76.52025672 90.11858999 58.25024414 90.06866455 C54.03923044 90.05828196 49.82821042 90.05383551 45.6171875 90.04882812 C37.4114414 90.03822654 29.20572543 90.02124712 21 90 C12.15955153 67.27368832 12.15955153 67.27368832 8.75 55.5625 C8.41991943 54.43924316 8.08983887 53.31598633 7.74975586 52.15869141 C4.72765155 41.57721917 2.53830404 30.89384409 1 20 C0.8954248 19.26555664 0.79084961 18.53111328 0.68310547 17.77441406 C-0.08710059 11.7279616 0 6.22231108 0 0 Z " fill="#002A4E" transform="translate(245,530)"/>
<path d="M0 0 C20.54761545 -0.08951259 41.08062266 0.17629343 61.625 0.5 C77.650625 0.7475 77.650625 0.7475 94 1 C94 43.57 94 86.14 94 130 C78.69675968 130 64.7789098 125.37689893 53.5703125 114.765625 C29.71381388 89.09632253 16.41765136 53.7773542 6 21 C5.38994257 19.10917496 4.77928347 17.21854392 4.16796875 15.328125 C3.61105154 13.59404764 3.05501321 11.85968769 2.5 10.125 C2.24452393 9.32819824 1.98904785 8.53139648 1.72583008 7.71044922 C0 2.2375357 0 2.2375357 0 0 Z " fill="#002A4D" transform="translate(398,650)"/>
<path d="M0 0 C8.56863583 6.01484633 13.61745006 12.97735019 16.9375 22.9375 C16.97704234 25.27049825 16.98151732 27.60458189 16.9375 29.9375 C17.46601562 30.18628906 17.99453125 30.43507813 18.5390625 30.69140625 C33.22947175 38.32371985 46.08233845 49.22508522 58.40820312 60.1418457 C60.91167487 62.33531838 62.74446793 63.87315598 65.9375 64.9375 C67.8444862 64.3926251 67.8444862 64.3926251 69.875 63.5 C79.11585247 60.28514032 87.33495421 61.30906488 96.1171875 65.390625 C104.6457622 70.06834741 113.44879446 76.97285456 116.875 86.375 C119.22643841 95.88362907 119.6608064 107.72480996 115.32421875 116.671875 C109.76419444 125.75585838 100.59332329 136.85285146 89.69921875 139.4765625 C76.54625377 141.67182398 67.18455426 138.78368485 56.5625 131.25390625 C49.18089683 124.78058628 43.2014952 114.20698735 42.3671875 104.3671875 C42.15145419 97.57377471 42.86353194 91.42075786 44.9375 84.9375 C31.28934182 74.95080506 31.28934182 74.95080506 17.27539062 65.48925781 C14.28098862 63.54273604 11.39920123 61.55250442 8.609375 59.3203125 C1.60930765 53.8244613 -2.94830162 52.30720857 -11.88671875 52.93359375 C-16.65618407 52.93946025 -19.67680009 51.18680916 -23.0625 47.9375 C-26.12649818 44.48684048 -28.02333559 41.20786246 -29.75 36.9375 C-30.16636719 35.926875 -30.58273437 34.91625 -31.01171875 33.875 C-33.15206488 27.89157884 -34.72919732 20.80340789 -32.12109375 14.75390625 C-28.10716713 8.09758279 -22.4243882 1.87611698 -15.25 -1.3125 C-9.41987128 -2.68429499 -5.19684333 -3.05578408 0 0 Z " fill="#0091D1" transform="translate(602.0625,322.0625)"/>
<path d="M0 0 C0.33 0.66 0.66 1.32 1 2 C-0.13647461 4.35986328 -0.13647461 4.35986328 -1.90234375 7.3203125 C-2.54139648 8.40441406 -3.18044922 9.48851562 -3.83886719 10.60546875 C-4.352901 11.46664307 -4.352901 11.46664307 -4.87731934 12.34521484 C-6.65194026 15.32437121 -8.39383843 18.32251131 -10.13671875 21.3203125 C-10.65106979 22.20387421 -10.65106979 22.20387421 -11.17581177 23.10528564 C-15.13483294 29.92442111 -18.74073004 36.82208832 -22 44 C-22.60158936 45.31846924 -22.60158936 45.31846924 -23.21533203 46.66357422 C-31.01586569 63.95865311 -37.0782858 81.6366498 -42.8984375 99.66503906 C-44.16184535 103.48998393 -45.53417125 107.24863563 -47 111 C-52.07594116 111.83639712 -56.9911398 112.13912523 -62.13842773 112.11352539 C-62.91973557 112.11367142 -63.7010434 112.11381744 -64.50602722 112.1139679 C-67.0652452 112.11327627 -69.62438862 112.10551927 -72.18359375 112.09765625 C-73.96720846 112.0957894 -75.75082368 112.09436676 -77.53443909 112.09336853 C-82.21151158 112.08956435 -86.88855265 112.07975213 -91.56561279 112.06866455 C-96.34516983 112.05840516 -101.12473198 112.05386123 -105.90429688 112.04882812 C-115.269545 112.03812786 -124.63476988 112.02107682 -134 112 C-127.80996763 95.98709112 -114.34819756 81.0905971 -102.6171875 68.76953125 C-100.57165145 66.60492668 -98.63690377 64.4249827 -96.75 62.125 C-94.15099024 59.04245354 -91.24256037 56.46485877 -88.16796875 53.86328125 C-86.70248107 52.603754 -85.26764289 51.30780873 -83.86328125 49.98046875 C-76.19919472 42.75879129 -67.71938513 36.85987158 -59 31 C-58.2663623 30.5059668 -57.53272461 30.01193359 -56.77685547 29.50292969 C-39.06355323 17.68886282 -20.09704044 7.15650708 0 0 Z " fill="#00294D" transform="translate(413,265)"/>
<path d="M0 0 C2.6276033 0.00503435 5.25520755 0.00959377 7.8828125 0.01367188 C14.21356309 0.02450286 20.54427681 0.0410819 26.875 0.0625 C27.11967514 0.88494705 27.36435028 1.7073941 27.61643982 2.55476379 C39.29225274 41.71765331 53.75251755 77.86402502 77.875 111.0625 C70.81045617 113.41734794 60.23856787 106.27964641 53.8515625 103.1171875 C42.0078686 97.12998795 30.62590315 90.85034936 19.875 83.0625 C18.85921875 82.33804688 17.8434375 81.61359375 16.796875 80.8671875 C8.79322767 75.02159167 1.31533613 68.59796095 -6.125 62.0625 C-7.02347656 61.27746094 -7.92195313 60.49242187 -8.84765625 59.68359375 C-18.81000389 50.85799576 -27.9358425 41.55974807 -36.125 31.0625 C-36.63353516 30.41974121 -37.14207031 29.77698242 -37.66601562 29.11474609 C-56.125 5.75903349 -56.125 5.75903349 -56.125 1.0625 C-37.40731948 0.17200133 -18.73665972 -0.06362397 0 0 Z " fill="#002A4E" transform="translate(339.125,649.9375)"/>
<path d="M0 0 C3.5 1.8125 3.5 1.8125 6 4 C6.53797211 4.4622699 7.07594421 4.92453979 7.63021851 5.40081787 C10.04646086 8.22171421 9.46233814 11.96305884 9.4765625 15.515625 C9.49214203 16.36364685 9.50772156 17.2116687 9.52377319 18.08538818 C9.57130655 20.80691428 9.59897704 23.52819073 9.625 26.25 C9.67387057 29.79697457 9.73024616 33.34380242 9.7890625 36.890625 C9.80288971 37.75374802 9.81671692 38.61687103 9.83096313 39.50614929 C9.34803908 55.5924441 9.34803908 55.5924441 15 70 C15.66257812 70.886875 16.32515625 71.77375 17.0078125 72.6875 C23.36561895 80.34078425 30.67139783 85.43789773 39.18164062 90.54760742 C47.23042998 95.4402366 47.23042998 95.4402366 49 100 C49.88982328 104.29046576 49.98653314 108.32560889 47.72265625 112.16796875 C45.66473339 114.60829293 43.87002323 116.56498838 41 118 C34.72610927 118.47794661 30.75436098 117.50194084 25.25 114.5625 C24.56115723 114.20631592 23.87231445 113.85013184 23.16259766 113.4831543 C16.57877542 109.97315502 10.78173176 105.71643631 5 101 C4.09701172 100.30777344 4.09701172 100.30777344 3.17578125 99.6015625 C-8.51400927 90.45836676 -17.76117104 76.90801551 -19.7895813 62.10630798 C-20.20608327 57.93709001 -20.18423326 53.75698092 -20.203125 49.5703125 C-20.20882507 48.58054413 -20.21452515 47.59077576 -20.22039795 46.5710144 C-20.22980813 44.48501644 -20.23636601 42.39900388 -20.24023438 40.31298828 C-20.24994797 37.14198657 -20.28101289 33.97163143 -20.3125 30.80078125 C-20.31903057 28.76562881 -20.32428083 26.73047178 -20.328125 24.6953125 C-20.3404718 23.7575296 -20.3528186 22.8197467 -20.36553955 21.85354614 C-20.3404668 14.35384782 -19.33307385 7.85801546 -14.5 1.9375 C-10.19396964 -1.16284186 -5.03850719 -0.82475564 0 0 Z " fill="#0091D1" transform="translate(689,491)"/>
<path d="M0 0 C4.95520521 2.57289501 8.49116963 5.98233926 11 11 C11.37381854 16.60727817 11.18490827 20.16772538 8 25 C4.3754738 28.35268673 1.74708603 29.79446047 -3.1875 30.375 C-8.81797596 29.82118269 -12.84039864 27.28838493 -16.703125 23.1953125 C-19.26108379 18.86527382 -18.69353607 13.84178919 -18 9 C-14.63085164 1.85962385 -7.60935183 -1.34546496 0 0 Z " fill="#002A4E" transform="translate(619,606)"/>
<path d="M0 0 C4.21937136 1.59221561 7.15424973 3.50396298 10 7 C11.01450099 12.77370416 10.77461334 18.2720164 8.375 23.625 C4.64784928 27.35215072 1.25769307 29.12645327 -4 29.4375 C-8.23419303 29.2674846 -10.74108092 27.72839737 -14 25 C-17.63713929 20.86118633 -18.50985775 16.82404122 -18.4921875 11.42578125 C-17.57913022 6.92571322 -14.34743043 3.96876183 -11 1 C-7.54427522 -0.72786239 -3.78556935 -0.35749053 0 0 Z " fill="#002A4F" transform="translate(686,408)"/>
<path d="M0 0 C3.76842369 3.43462392 6.3875312 7.3482108 9.1875 11.5625 C13.78730764 18.36178232 18.68546581 24.73841214 24 31 C24.72445313 31.90878906 25.44890625 32.81757812 26.1953125 33.75390625 C39.45067095 50.09934022 54.91193021 65.69658975 72 78 C73.1495244 78.87447264 74.29659027 79.75218482 75.44140625 80.6328125 C93.63777269 94.50924976 113.43454461 105.11459563 134 115 C129.91583411 116.36138863 127.68085076 114.83766207 124 113.0625 C123.26942383 112.711875 122.53884766 112.36125 121.78613281 112 C101.73354406 102.09223907 83.39370273 90.02457959 66 76 C64.86053742 75.10268858 63.72005667 74.2066671 62.578125 73.3125 C57.39597914 69.18968783 52.66984009 64.80123233 48.0546875 60.0546875 C46.22977213 58.22977213 44.36658712 56.57502719 42.375 54.9375 C39.19345471 52.27405039 36.53999316 49.32896318 33.859375 46.16796875 C31.92139177 43.90834545 29.90263615 41.74183886 27.875 39.5625 C19.17357005 29.89753862 11.43479876 19.34969865 4.1875 8.5625 C3.54760132 7.61370972 3.54760132 7.61370972 2.89477539 6.64575195 C0 2.2529045 0 2.2529045 0 0 Z " fill="#00AEE9" transform="translate(256,671)"/>
<path d="M0 0 C16.59887858 6.03322711 31.46142869 20.9266818 44 33 C44.52368164 33.50176758 45.04736328 34.00353516 45.58691406 34.52050781 C52.60928278 41.28198358 59.00020908 48.2999426 65 56 C66.00748515 57.2554711 67.01532077 58.510661 68.0234375 59.765625 C79.62846447 74.38440108 89.07941489 90.20208247 97.07226562 107.0546875 C98.05647285 109.11841464 99.06618719 111.1684924 100.078125 113.21875 C100.74057098 114.58285415 101.40206371 115.94742172 102.0625 117.3125 C102.37421143 117.9413208 102.68592285 118.5701416 103.00708008 119.21801758 C105.11454512 123.65636465 105.11454512 123.65636465 104 127 C103.36723145 125.65760254 103.36723145 125.65760254 102.72167969 124.28808594 C89.13468115 95.53826093 74.79962183 69.46639372 53 46 C51.82897238 44.64960273 50.66214859 43.29554607 49.5 41.9375 C42.34125482 33.76076812 34.49397644 26.7587784 26 20 C25.22140625 19.35417969 24.4428125 18.70835937 23.640625 18.04296875 C17.73556909 13.1782331 11.53186794 8.84792993 5.1809082 4.59228516 C3.43818189 3.41790743 1.71679034 2.2119773 0 1 C0 0.67 0 0.34 0 0 Z " fill="#00ADEA" transform="translate(656,288)"/>
<path d="M0 0 C1.24136719 0.10828125 1.24136719 0.10828125 2.5078125 0.21875 C9.79275484 0.7851818 17.00596543 1.05670574 24.3125 1 C36.00553578 0.91290104 47.686577 1.2088793 59.375 1.5 C60.3419278 1.52400879 61.30885559 1.54801758 62.30508423 1.57275391 C67.87014982 1.71165171 73.43510827 1.85431003 79 2 C79 2.33 79 2.66 79 3 C52.6 3 26.2 3 -1 3 C-0.67 2.01 -0.34 1.02 0 0 Z " fill="#003158" transform="translate(280,374)"/>
<path d="M0 0 C2.16768775 2.11576708 4.1612497 4.31972791 6.125 6.625 C8.7214661 9.62971548 11.43249176 12.39281519 14.3125 15.125 C23.81947182 24.51801839 34.53807023 38.14465036 35.125 51.9375 C35.08375 52.618125 35.0425 53.29875 35 54 C33.24471606 50.70485332 32.00859869 47.32399036 30.75 43.8125 C25.30033921 29.65283222 14.620307 18.1966776 3.77734375 7.8046875 C1.19951918 5.18720409 0 3.74267816 0 0 Z " fill="#00A9E8" transform="translate(566,436)"/>
<path d="M0 0 C2 3 2 3 2 7 C-16.15 7 -34.3 7 -53 7 C-53 6.67 -53 6.34 -53 6 C-35.51 5.67 -18.02 5.34 0 5 C0 3.35 0 1.7 0 0 Z " fill="#001C3B" transform="translate(356,612)"/>
<path d="M0 0 C1.13311964 2.22387966 2.20475002 4.4564491 3.2265625 6.734375 C8.68981368 18.51546414 15.39501782 24.36817041 27 30 C24 31 24 31 21.984375 30.21484375 C11.15665307 24.02486985 4.25915797 17.00488246 0 5 C-0.125 2.1875 -0.125 2.1875 0 0 Z " fill="#00ABE9" transform="translate(577,626)"/>
<path d="M0 0 C0.66 0 1.32 0 2 0 C2 0.66 2 1.32 2 2 C2.58934326 2.2671582 3.17868652 2.53431641 3.78588867 2.80957031 C6.03398288 4.01827109 7.58591747 5.28890583 9.42578125 7.046875 C10.05806641 7.645 10.69035156 8.243125 11.34179688 8.859375 C11.99212891 9.48328125 12.64246094 10.1071875 13.3125 10.75 C18.10011798 15.31055638 22.94478099 19.73608953 28 24 C27.34 24.66 26.68 25.32 26 26 C25.11699219 25.09378906 24.23398437 24.18757812 23.32421875 23.25390625 C16.83431236 16.64961629 10.38197386 10.39674792 3.01171875 4.76953125 C1 3 1 3 0 0 Z " fill="#00A7E5" transform="translate(632,657)"/>
<path d="M0 0 C8.13815304 2.30643508 16.05682118 5.10428784 24 8 C24 8.33 24 8.66 24 9 C18.20468763 8.47667748 13.41935152 7.29854313 8.0625 5.0625 C7.39154297 4.79759766 6.72058594 4.53269531 6.02929688 4.25976562 C1.13212798 2.26425595 1.13212798 2.26425595 0 0 Z " fill="#00A2E1" transform="translate(393,788)"/>
<path d="M0 0 C2.97366555 0.88406273 4.7127547 1.68303967 6.8125 4 C8.52551822 8.32762497 8.24102983 12.40257918 8 17 C7.67 17 7.34 17 7 17 C6.99742187 16.443125 6.99484375 15.88625 6.9921875 15.3125 C6.65417419 8.64237066 4.39376037 4.93122341 0 0 Z " fill="#00ADEC" transform="translate(690,409)"/>
<path d="M0 0 C1.12894876 0.93274109 2.25300876 1.87140122 3.375 2.8125 C4.00148438 3.33457031 4.62796875 3.85664062 5.2734375 4.39453125 C7 6 7 6 9 9 C4.74822077 8.52758009 2.70030797 6.15035929 0 3 C0 2.01 0 1.02 0 0 Z " fill="#00315A" transform="translate(643,668)"/>
<path d="M0 0 C0.66 0 1.32 0 2 0 C3.27400375 1.47000433 4.5435008 2.94515781 5.7578125 4.46484375 C7.07336124 6.09066342 8.48213245 7.56202021 10 9 C7.33289346 8.84759391 5.5494129 8.50635081 3.5546875 6.66796875 C0 2.49375 0 2.49375 0 0 Z " fill="#00A4E2" transform="translate(576,364)"/>
<path d="M0 0 C1.14926266 0.95421808 2.29430541 1.91352045 3.4375 2.875 C4.07558594 3.40867187 4.71367188 3.94234375 5.37109375 4.4921875 C7 6 7 6 8 8 C4.21479387 7.45925627 2.40822445 5.92427254 0 3 C0 2.01 0 1.02 0 0 Z " fill="#00335B" transform="translate(697,321)"/>
<path d="M0 0 C1.98 0.99 1.98 0.99 4 2 C4 5.63 4 9.26 4 13 C3.67 13 3.34 13 3 13 C2.92652344 12.09507812 2.92652344 12.09507812 2.8515625 11.171875 C2.77679687 10.37265625 2.70203125 9.5734375 2.625 8.75 C2.55539062 7.96109375 2.48578125 7.1721875 2.4140625 6.359375 C1.98492887 3.914123 1.21399362 2.15163097 0 0 Z " fill="#002144" transform="translate(692,413)"/>
</svg>
